# xmcd
#
# Track frame offsets: 
#        150
#        23407
#        56811
#        72129
#        98293
#        128915
#        152717
#        168441
#        185508
#        199021
#        217846
#        233663
#        262631
#        281024
#        315462
#
# Disc length: 4427 seconds
#
# Revision: 0
# Processed by: cddbd v1.5.2PL0 Copyright (c) Steve Scherf et al.
# Submitted via: ExactAudioCopy v1.3
#
DISCID=bb11490f
DTITLE=Buddy Guy - Can't Quit The Blues [Disk 3]
DYEAR=2006
DGENRE=Chicago Blues
TTITLE0=Nobody Understands Me But My Guitar
TTITLE1=Baby Please Don't Leave Me
TTITLE2=Done Got Old
TTITLE3=Honey Bee
TTITLE4=Tramp
TTITLE5=Crawlin' Kingsnake
TTITLE6=Moaning And Groaning
TTITLE7=Bad Life Blues
TTITLE8=I Can't Be Satisfied (live)
TTITLE9=First Time I Met The Blues (live)
TTITLE10=I'd Rather Be Blind, Crippled And Crazy
TTITLE11=Somebody's Sleeping In My Bed
TTITLE12=I Miss You
TTITLE13=Cut You Loose
TTITLE14=Price You Gotta Pay
EXTD=
EXTT0=
EXTT1=
EXTT2=
EXTT3=
EXTT4=
EXTT5=
EXTT6=
EXTT7=
EXTT8=
EXTT9=
EXTT10=
EXTT11=
EXTT12=
EXTT13=
EXTT14=
PLAYORDER=
